<?xml version="1.0" encoding="utf-8"?>
<!-- Generator: Adobe Illustrator 21.0.0, SVG Export Plug-In . SVG Version: 6.00 Build 0)  -->
<svg version="1.1" id="Слой_2" xmlns="http://www.w3.org/2000/svg" xmlns:xlink="http://www.w3.org/1999/xlink" x="0px" y="0px"
	 viewBox="0 0 1000.1 773.2" style="enable-background:new 0 0 1000.1 773.2;" xml:space="preserve">
<style type="text/css">
	.st0{opacity:0.2;fill:#FFFFFF;}
</style>
<path id="Fill-1" class="st0" d="M109.8,583C66.8,580-26.6,542.2,7.2,426.2c33.8-116,146.4-102.8,195.2-149.9
	c48.9-47.1,56.7-188.8,164.7-253.2c108-64.4,212.1,24,247.3,44.8c35.2,20.7,178.1-66.6,265.3,0c87.3,66.6,5.5,187.7-4.4,271.8
	c-9.8,84.1,91.6,90.4,116.7,145.1c25.1,54.7-14.9,90.6-40.4,98.3c-23.4,7.1-73.9,25-115.9,10c-41.7-14.9-21,135.2-122.7,145.3
	c-85.5,8.5-158.4-75.1-213.1-58.5c-39.9,12.1-80.8,117-233.8,88.5C140.3,744.9,254.8,589,109.8,583z"/>
</svg>
