<?xml version="1.0" encoding="utf-8"?>
<!-- Generator: Adobe Illustrator 21.0.0, SVG Export Plug-In . SVG Version: 6.00 Build 0)  -->
<svg version="1.1" id="Слой_1" xmlns="http://www.w3.org/2000/svg" xmlns:xlink="http://www.w3.org/1999/xlink" x="0px" y="0px"
	 viewBox="0 0 2032.3 435.5" style="enable-background:new 0 0 2032.3 435.5;" xml:space="preserve">
<style type="text/css">
	.st0{fill:#0087E7;}
</style>
<desc>Created with Lunacy</desc>
<g>
	<path class="st0" d="M2025.6,111.6c-143.9,0-235.8-76.2-376.9-74c-141.1-2.2-233,74-376.9,74c-111.1,0-258.4-63.1-439.2-94.4
		c-29.3-6.3-68.1-11.7-119.2-14.7C690.4,0.9,666.9,0,643,0c-3.6,0-7.2,0-10.8,0c-3.6,0-7.2,0-10.8,0c-24,0-47.4,0.9-70.5,2.5
		c-51.1,3-89.9,8.4-119.2,14.7C254.9,47.8,110.2,108.8,0,111.5v324h342.8h578.7h410.9H1965h67.3v-324
		C2030.1,111.6,2027.8,111.6,2025.6,111.6z"/>
</g>
</svg>
