<?xml version="1.0" encoding="utf-8"?>
<!-- Generator: Adobe Illustrator 21.0.0, SVG Export Plug-In . SVG Version: 6.00 Build 0)  -->
<svg version="1.1" id="Слой_1" xmlns="http://www.w3.org/2000/svg" xmlns:xlink="http://www.w3.org/1999/xlink" x="0px" y="0px"
	 viewBox="0 0 135 40" style="enable-background:new 0 0 135 40;" xml:space="preserve">
<style type="text/css">
	.st0{fill:#FFFFFF;}
	.st1{fill:url(#SVGID_1_);}
	.st2{fill:url(#SVGID_2_);}
	.st3{fill:url(#SVGID_3_);}
	.st4{fill:url(#SVGID_4_);}
	.st5{opacity:0.2;enable-background:new    ;}
	.st6{opacity:0.12;enable-background:new    ;}
	.st7{opacity:0.25;fill:#FFFFFF;enable-background:new    ;}
</style>
<path class="st0" d="M130,40H5c-2.8,0-5-2.3-5-5V5c0-2.8,2.3-5,5-5h125c2.8,0,5,2.3,5,5v30C135,37.7,132.8,40,130,40z"/>
<g>
	<rect x="59.8" y="6.9" width="1" height="6.2"/>
	<polygon points="48.4,13.1 52.1,13.1 52.1,12.1 49.4,12.1 49.4,10.4 51.9,10.4 51.9,9.5 49.4,9.5 49.4,7.8 52.1,7.8 52.1,6.9 
		48.4,6.9 	"/>
	<path d="M44.4,10.7h2.2c0,0.4-0.2,0.7-0.5,1c-0.5,0.5-0.9,0.7-1.6,0.7c-0.6,0-1.1-0.3-1.5-0.7c-0.4-0.4-0.7-0.9-0.7-1.6
		c0-0.7,0.2-1.3,0.7-1.6c0.3-0.4,0.9-0.7,1.5-0.7c0.7,0,1.2,0.2,1.5,0.7l0.1,0.1l0.6-0.6l0-0.1c-0.2-0.3-0.6-0.6-0.9-0.7
		c-0.4-0.2-0.8-0.3-1.2-0.3c-0.9,0-1.6,0.3-2.3,0.9c-0.6,0.6-0.9,1.4-0.9,2.3s0.3,1.6,0.9,2.3c0.6,0.6,1.4,0.9,2.3,0.9
		s1.6-0.3,2.3-0.9c0.5-0.5,0.7-1.2,0.7-2.1V9.8h-3.1V10.7z"/>
	<polygon points="52.7,7.8 54.4,7.8 54.4,13.1 55.4,13.1 55.4,7.8 57.1,7.8 57.1,6.9 52.7,6.9 	"/>
	<polygon points="61.5,7.8 63.2,7.8 63.2,13.1 64.2,13.1 64.1,7.8 65.8,7.8 65.8,6.9 61.5,6.9 	"/>
	<polygon points="79.3,6.9 79.3,11.3 76.6,6.9 75.5,6.9 75.5,13.1 76.4,13.1 76.4,8.4 79.3,13.1 79.3,13.1 80.3,13.1 80.3,6.9 	"/>
	<path d="M71.4,6.8c-0.9,0-1.6,0.3-2.3,0.9c-0.6,0.6-0.9,1.4-0.9,2.3s0.3,1.6,0.9,2.3c0.6,0.6,1.4,0.9,2.3,0.9s1.6-0.3,2.3-0.9
		c0.6-0.6,0.9-1.4,0.9-2.3s-0.3-1.6-0.9-2.3C73,7.1,72.3,6.8,71.4,6.8z M73.6,10c0,0.6-0.2,1.2-0.7,1.6c-0.3,0.4-0.9,0.7-1.5,0.7
		c-0.5,0-1.1-0.3-1.5-0.7l0,0c-0.4-0.4-0.7-0.9-0.7-1.6c0-0.6,0.2-1.2,0.7-1.6c0.3-0.4,0.9-0.7,1.5-0.7c0.5,0,1.1,0.3,1.5,0.7
		C73.4,8.7,73.6,9.3,73.6,10z"/>
</g>
<path d="M68.1,21.8c-2.4,0-4.3,1.8-4.3,4.3c0,2.4,1.9,4.3,4.3,4.3s4.3-1.8,4.3-4.3C72.4,23.5,70.5,21.8,68.1,21.8z M68.1,28.6
	c-1.3,0-2.4-1.1-2.4-2.6s1.1-2.6,2.4-2.6s2.4,1,2.4,2.6C70.5,27.5,69.4,28.6,68.1,28.6z M58.8,21.8c-2.4,0-4.3,1.8-4.3,4.3
	c0,2.4,1.9,4.3,4.3,4.3s4.3-1.8,4.3-4.3C63.1,23.5,61.2,21.8,58.8,21.8z M58.8,28.6c-1.3,0-2.4-1.1-2.4-2.6s1.1-2.6,2.4-2.6
	s2.4,1,2.4,2.6C61.2,27.5,60.1,28.6,58.8,28.6z M47.7,23.1v1.8H52c-0.1,1-0.5,1.8-1,2.3c-0.6,0.6-1.6,1.3-3.3,1.3
	c-2.7,0-4.7-2.1-4.7-4.8s2.1-4.8,4.7-4.8c1.4,0,2.5,0.6,3.3,1.3l1.3-1.3c-1.1-1-2.5-1.8-4.5-1.8c-3.6,0-6.7,3-6.7,6.6
	s3.1,6.6,6.7,6.6c2,0,3.4-0.6,4.6-1.9c1.2-1.2,1.6-2.9,1.6-4.2c0-0.4,0-0.8-0.1-1.1C53.9,23.1,47.7,23.1,47.7,23.1z M93.1,24.5
	c-0.4-1-1.4-2.7-3.6-2.7s-4,1.7-4,4.3c0,2.4,1.8,4.3,4.2,4.3c1.9,0,3.1-1.2,3.5-1.9l-1.4-1c-0.5,0.7-1.1,1.2-2.1,1.2
	s-1.6-0.4-2.1-1.3l5.7-2.4C93.3,25,93.1,24.5,93.1,24.5z M87.3,25.9c0-1.6,1.3-2.5,2.2-2.5c0.7,0,1.4,0.4,1.6,0.9
	C91.1,24.3,87.3,25.9,87.3,25.9z M82.6,30h1.9V17.5h-1.9V30z M79.6,22.7c-0.5-0.5-1.3-1-2.3-1c-2.1,0-4.1,1.9-4.1,4.3
	s1.9,4.2,4.1,4.2c1,0,1.8-0.5,2.2-1h0.1v0.6c0,1.6-0.9,2.5-2.3,2.5c-1.1,0-1.9-0.8-2.1-1.5l-1.6,0.7c0.5,1.1,1.7,2.5,3.8,2.5
	c2.2,0,4-1.3,4-4.4V22h-1.8C79.6,22,79.6,22.7,79.6,22.7z M77.4,28.6c-1.3,0-2.4-1.1-2.4-2.6s1.1-2.6,2.4-2.6s2.3,1.1,2.3,2.6
	S78.7,28.6,77.4,28.6z M101.8,17.5h-4.5V30h1.9v-4.7h2.6c2.1,0,4.1-1.5,4.1-3.9S103.9,17.5,101.8,17.5z M101.9,23.5h-2.7v-4.3h2.7
	c1.4,0,2.2,1.2,2.2,2.1C104,22.4,103.2,23.5,101.9,23.5z M113.4,21.7c-1.4,0-2.8,0.6-3.3,1.9l1.7,0.7c0.4-0.7,1-0.9,1.7-0.9
	c1,0,1.9,0.6,2,1.6v0.1c-0.3-0.2-1.1-0.5-1.9-0.5c-1.8,0-3.6,1-3.6,2.8c0,1.7,1.5,2.8,3.1,2.8c1.3,0,1.9-0.6,2.4-1.2h0.1v1h1.8v-4.8
	C117.2,23,115.5,21.7,113.4,21.7z M113.2,28.6c-0.6,0-1.5-0.3-1.5-1.1c0-1,1.1-1.3,2-1.3c0.8,0,1.2,0.2,1.7,0.4
	C115.2,27.8,114.2,28.6,113.2,28.6z M123.7,22l-2.1,5.4h-0.1l-2.2-5.4h-2l3.3,7.6l-1.9,4.2h1.9l5.1-11.8C125.7,22,123.7,22,123.7,22
	z M106.9,30h1.9V17.5h-1.9V30z"/>
<linearGradient id="SVGID_1_" gradientUnits="userSpaceOnUse" x1="21.7703" y1="1308.6804" x2="4.9873" y2="1325.4624" gradientTransform="matrix(1 0 0 1 0 -1300)">
	<stop  offset="0" style="stop-color:#00A0FF"/>
	<stop  offset="7.000001e-03" style="stop-color:#00A1FF"/>
	<stop  offset="0.26" style="stop-color:#00BEFF"/>
	<stop  offset="0.512" style="stop-color:#00D2FF"/>
	<stop  offset="0.76" style="stop-color:#00DFFF"/>
	<stop  offset="1" style="stop-color:#00E3FF"/>
</linearGradient>
<path class="st1" d="M10.4,7.5c-0.3,0.3-0.5,0.8-0.5,1.4V31c0,0.6,0.2,1.1,0.5,1.4l0.1,0.1l12.4-12.4v-0.2L10.4,7.5z"/>
<linearGradient id="SVGID_2_" gradientUnits="userSpaceOnUse" x1="33.834" y1="1320.05" x2="9.637" y2="1320.05" gradientTransform="matrix(1 0 0 1 0 -1300)">
	<stop  offset="0" style="stop-color:#FFE000"/>
	<stop  offset="0.409" style="stop-color:#FFBD00"/>
	<stop  offset="0.775" style="stop-color:#FFA500"/>
	<stop  offset="1" style="stop-color:#FF9C00"/>
</linearGradient>
<path class="st2" d="M27,24.3l-4.1-4.1v-0.3l4.1-4.1l0.1,0.1l4.9,2.8c1.4,0.8,1.4,2.1,0,2.9L27,24.3z"/>
<linearGradient id="SVGID_3_" gradientUnits="userSpaceOnUse" x1="24.816" y1="1322.2841" x2="2.057" y2="1345.043" gradientTransform="matrix(1 0 0 1 0 -1300)">
	<stop  offset="0" style="stop-color:#FF3A44"/>
	<stop  offset="1" style="stop-color:#C31162"/>
</linearGradient>
<path class="st3" d="M27.1,24.2L22.9,20L10.4,32.5c0.5,0.5,1.2,0.5,2.1,0.1L27.1,24.2"/>
<linearGradient id="SVGID_4_" gradientUnits="userSpaceOnUse" x1="7.2626" y1="1300.2114" x2="17.4246" y2="1310.3744" gradientTransform="matrix(1 0 0 1 0 -1300)">
	<stop  offset="0" style="stop-color:#32A071"/>
	<stop  offset="6.900000e-02" style="stop-color:#2DA771"/>
	<stop  offset="0.476" style="stop-color:#15CF74"/>
	<stop  offset="0.801" style="stop-color:#06E775"/>
	<stop  offset="1" style="stop-color:#00F076"/>
</linearGradient>
<path class="st4" d="M27.1,15.8L12.5,7.5c-0.9-0.5-1.6-0.4-2.1,0.1L22.9,20C22.9,20,27.1,15.8,27.1,15.8z"/>
<path class="st5" d="M27,24.1l-14.5,8.2c-0.8,0.5-1.5,0.4-2,0l-0.1,0.1l0.1,0.1c0.5,0.4,1.2,0.5,2,0L27,24.1z"/>
<path class="st6" d="M10.4,32.3C10.1,32,10,31.5,10,30.9V31c0,0.6,0.2,1.1,0.5,1.4v-0.1C10.5,32.3,10.4,32.3,10.4,32.3z M32,21.3
	l-5,2.8l0.1,0.1L32,21.3c0.7-0.3,1-0.8,1-1.3C33,20.5,32.6,20.9,32,21.3z"/>
<path class="st7" d="M12.5,7.6L32,18.7c0.6,0.4,1,0.8,1,1.3c0-0.5-0.3-1-1-1.4L12.5,7.6C11.1,6.7,10,7.4,10,9v0.1
	C10,7.5,11.1,6.8,12.5,7.6z"/>
</svg>
