<svg xmlns="http://www.w3.org/2000/svg" xmlns:xlink="http://www.w3.org/1999/xlink" preserveAspectRatio="none" width="255" height="75"><defs><path fill="#fff" d="M394.5 157q0-10-10-10h-235q-10 0-10 10v55q0 10 10 10h235q10 0 10-10v-55z" id="a"/><path fill="#000" d="M31.8 23.75q-1.65-1.6-1.7-4-.05-2 1.3-3.6.7-.8 1.45-1.25-1.6-2.35-4.65-2.55-1.15-.1-2.8.55-1.8.65-2.1.65-.4 0-1.85-.55-1.45-.6-2.35-.6-1.6.05-3 .9t-2.25 2.3q-1.55 2.75-.85 6.75.6 3.45 2.45 6.15 2.2 3.25 4 3.2.75 0 2-.55 1.15-.5 2.2-.5 1 0 2.2.5 1.15.55 2 .5 1.15 0 2.2-.95.65-.65 1.7-2.15 1.25-1.8 1.75-3.65-.85-.3-1.7-1.15z" id="b"/><path fill="#000" d="M23.1 12.05q2.1.2 3.8-1.75 1.55-1.85 1.3-4.1-.95.05-2 .6-1.1.55-1.75 1.35-1.6 1.95-1.35 3.9z" id="c"/><path fill="#000" d="M49.3 18.15h-2.65L42.4 31.5h2.2l1.2-3.95h4.3l1.25 3.95h2.25l-4.3-13.35m-1.4 1.8h.05l1.8 6h-3.6l1.75-6z" id="d"/><path fill="#000" d="M60.65 21.7q-2.15 0-3.2 1.7h-.05l-.15-1.5H55.4l.1 13.5h2.1v-5.05h.05q.85 1.35 2.7 1.35 1.7 0 2.95-1.25 1.35-1.4 1.35-3.9 0-2.2-1.15-3.5-1.1-1.35-2.85-1.35m-2.1 2.2q.55-.5 1.45-.5 1.1 0 1.85.95.6.9.6 2.3 0 1.5-.65 2.45-.65.9-1.9.9-1 0-1.65-.7-.65-.7-.65-1.75v-1.6l.1-.65q.25-.9.85-1.4z" id="e"/><path fill="#000" d="M74.55 23.05q-1.1-1.35-2.85-1.35-2.15 0-3.25 1.7l-.15-1.5h-1.85l.05 13.5h2.15v-5.05h.05q.85 1.35 2.7 1.35 1.7 0 2.95-1.25 1.3-1.35 1.3-3.9 0-2.25-1.1-3.5m-4.95.85q.55-.5 1.4-.5 1.2 0 1.85.95.65.85.65 2.3 0 1.5-.65 2.45-.65.9-1.9.9-1.1 0-1.65-.7-.65-.7-.65-1.75v-1.6l.1-.65q.25-.9.85-1.4z" id="f"/><path fill="#000" d="M84.7 23.8q-1.35-.5-1.95-1-.6-.5-.6-1.3 0-.75.5-1.2.6-.55 1.75-.55 1.45 0 2.55.6l.55-1.75q-1.3-.65-3-.65-2 0-3.3 1.05-1.2 1.05-1.2 2.7 0 2.5 3.5 3.85 1.2.4 1.85 1 .55.65.55 1.35 0 .9-.7 1.5-.65.5-1.85.5-1.75 0-3.1-.85l-.5 1.8q1.4.85 3.45.85 2.3 0 3.65-1.2Q88 29.45 88 27.75q0-1.45-.8-2.3-.7-.85-2.5-1.65z" id="g"/><path fill="#000" d="M89.2 23.5h1.4v4.8q0 1.85.75 2.6.7.8 1.95.8 1 0 1.65-.25l-.05-1.65q-.25.1-.95.1-1.25 0-1.25-1.75V23.5h2.35v-1.6H92.7v-2.4l-2.1.65v1.75h-1.4v1.6z" id="h"/><path fill="#000" d="M101.05 21.7q-2.25 0-3.5 1.4-1.3 1.45-1.3 3.65 0 2.05 1.25 3.55 1.25 1.4 3.4 1.4t3.5-1.45q1.25-1.4 1.25-3.65 0-2.15-1.2-3.5-1.25-1.4-3.4-1.4M99 24.4q.7-1.15 1.95-1.15t1.95 1.15q.55 1 .55 2.25 0 1.35-.6 2.3-.65 1.2-1.9 1.2T99 29q-.55-1-.55-2.3 0-1.3.55-2.3z" id="i"/><path fill="#000" d="M109.45 23.7h-.05l-.1-1.8h-1.85l.05 9.6h2.15v-5.05q0-1.1.55-1.9.6-.85 1.7-.85l.7.05v-2l-.55-.05q-.85 0-1.55.5-.65.6-1.05 1.5z" id="j"/><path fill="#000" d="M122.05 27.2l.1-.95q0-1.8-.85-3.05-1.15-1.55-3.15-1.55-2.1 0-3.35 1.55-1.2 1.45-1.2 3.6 0 2.2 1.3 3.55 1.3 1.3 3.5 1.3 1.85 0 3.2-.6l-.35-1.45q-1.1.45-2.55.45-1.3 0-2.1-.7-.85-.75-.95-2.15h6.4M116.3 24q.6-.85 1.7-.85t1.7.9q.4.7.4 1.6h-4.45q.05-.8.65-1.65z" id="k"/><path fill="#000" d="M49.05 10q0-1.55-1-2.45-.9-.75-2.6-.75l-1.8.15v6.45l1.55.05q1.8 0 2.75-.8 1.1-.95 1.1-2.65m-1.15 0q0 1.3-.65 1.95-.6.7-1.85.7l-.7-.05V7.7q.25-.05.85-.05 1.15 0 1.75.6.6.6.6 1.75z" id="l"/><path fill="#000" d="M54.9 11q0-1-.6-1.7-.7-.7-1.7-.7t-1.7.7q-.65.75-.65 1.8t.65 1.75q.6.65 1.65.65 1.15 0 1.7-.7.65-.65.65-1.8m-3.3 1.2q-.25-.6-.25-1.15 0-.6.25-1.1.4-.6 1-.6t.9.6q.3.45.3 1.1 0 .65-.3 1.1-.3.6-.95.6-.55 0-.95-.55z" id="m"/><path fill="#000" d="M62.75 8.7H61.7l-.9 3.75-1.05-3.75h-.85l-1.05 3.75L57 8.7h-1.1l1.4 4.7h.95l.65-2.05q.2-.5.4-1.5l1 3.55h.95l1.5-4.7z" id="n"/><path fill="#000" d="M65.15 10.6q0-.5.25-.8.3-.35.75-.35.95 0 .95 1.25v2.7h1.05v-2.8q0-1.1-.5-1.6-.5-.4-1.1-.4-.55 0-.95.25-.4.25-.55.6H65l-.05-.75h-.9l.05 4.7h1.05v-2.8z" id="o"/><path fill="#000" d="M71.05 13.4V6.55H70v6.85h1.05z" id="p"/><path fill="#000" d="M73.25 9.3q-.65.75-.65 1.8t.65 1.75q.6.65 1.65.65 1.15 0 1.7-.7.65-.65.65-1.8 0-1-.6-1.7-.7-.7-1.7-.7-1.1 0-1.7.7m1.65.05q.65 0 .95.6.3.45.3 1.1 0 .65-.3 1.1-.3.6-.95.6-.55 0-.95-.55-.25-.6-.25-1.15 0-.6.25-1.1.4-.6.95-.6z" id="q"/><path fill="#000" d="M82.3 13.4l-.05-2.85q0-1.95-1.85-1.95-.95 0-1.65.4l.25.7q.5-.35 1.2-.35 1 0 1 .9v.1q-1.3 0-2.05.45-.7.4-.7 1.35 0 .6.35.95.4.4 1.1.4.9 0 1.35-.65h.05l.05.55h.95m-1.1-2.35v.9q-.1.4-.35.6-.25.2-.65.2-.35 0-.5-.2-.2-.15-.2-.55 0-.95 1.7-.95z" id="r"/><path fill="#000" d="M84.35 9.25q-.6.75-.6 1.85 0 1.05.55 1.75.6.65 1.45.65 1.1 0 1.5-.85h.05l.05.75h.9l-.05-6.85h-1.05v2.7q-.35-.65-1.3-.65-.9 0-1.5.65m.8.65q.3-.5.9-.5.35 0 .7.25.35.35.4.65v1.1q0 .55-.3.9t-.8.35q-.6 0-.9-.45-.35-.4-.35-1.15 0-.75.35-1.15z" id="s"/><path fill="#000" d="M93.25 9.3q-.65.65-.65 1.8 0 1 .6 1.75.65.65 1.7.65 1.05 0 1.7-.7.6-.65.6-1.8 0-1-.6-1.7t-1.65-.7q-1.1 0-1.7.7m2.6.65q.3.45.3 1.1 0 .65-.3 1.1-.35.6-.95.6-.55 0-.95-.55-.3-.5-.3-1.15 0-.65.3-1.1.3-.6.95-.6.65 0 .95.6z" id="t"/><path fill="#000" d="M102.85 13.4v-2.8q0-1.1-.55-1.6-.5-.4-1.1-.4-.45 0-.95.25-.35.3-.5.6h-.05l-.05-.75h-.9v4.7h1.05v-2.8q0-.4.3-.8.3-.35.75-.35.95 0 .95 1.25v2.7h1.05z" id="u"/><path fill="#000" d="M108.75 8.7V7.5l-1 .35v.85h-.7v.8h.7v2.35q0 .9.35 1.3.3.35.95.35.4 0 .8-.1v-.8l-.5.05q-.6 0-.6-.9V9.5h1.15v-.8h-1.15z" id="v"/><path fill="#000" d="M115.45 10.6q0-1.05-.5-1.6-.5-.4-1.1-.4-.95 0-1.4.75h-.05v-2.8h-1.05v6.85h1.05v-2.85l.05-.35q.3-.75 1-.75.95 0 .95 1.3v2.65h1.05v-2.8z" id="w"/><path fill="#000" d="M117.55 9.35q-.55.7-.55 1.75 0 1.1.6 1.75.65.65 1.75.65.9 0 1.55-.3l-.15-.7q-.55.2-1.25.2t-1.05-.35Q118 12 118 11.3h3.15l.05-.45q0-.9-.45-1.5-.5-.75-1.55-.75-.95 0-1.65.75m.45 1.2q.1-.5.3-.8.3-.45.85-.45t.85.45q.2.5.2.8H118z" id="x"/></defs><use xlink:href="#a" transform="translate(-139.5 -147)"/><use xlink:href="#b" transform="matrix(1.87486 0 0 1.875 .1 0)"/><use xlink:href="#c" transform="matrix(1.87486 0 0 1.875 .1 0)"/><use xlink:href="#d" transform="matrix(1.87486 0 0 1.875 .1 0)"/><use xlink:href="#e" transform="matrix(1.87486 0 0 1.875 .1 0)"/><use xlink:href="#f" transform="matrix(1.87486 0 0 1.875 .1 0)"/><use xlink:href="#g" transform="matrix(1.87486 0 0 1.875 .1 0)"/><use xlink:href="#h" transform="matrix(1.87486 0 0 1.875 .1 0)"/><use xlink:href="#i" transform="matrix(1.87486 0 0 1.875 .1 0)"/><use xlink:href="#j" transform="matrix(1.87486 0 0 1.875 .1 0)"/><use xlink:href="#k" transform="matrix(1.87486 0 0 1.875 .1 0)"/><use xlink:href="#l" transform="matrix(1.87486 0 0 1.875 .1 0)"/><use xlink:href="#m" transform="matrix(1.87486 0 0 1.875 .1 0)"/><use xlink:href="#n" transform="matrix(1.87486 0 0 1.875 .1 0)"/><use xlink:href="#o" transform="matrix(1.87486 0 0 1.875 .1 0)"/><use xlink:href="#p" transform="matrix(1.87486 0 0 1.875 .1 0)"/><use xlink:href="#q" transform="matrix(1.87486 0 0 1.875 .1 0)"/><use xlink:href="#r" transform="matrix(1.87486 0 0 1.875 .1 0)"/><use xlink:href="#s" transform="matrix(1.87486 0 0 1.875 .1 0)"/><use xlink:href="#t" transform="matrix(1.87486 0 0 1.875 .1 0)"/><use xlink:href="#u" transform="matrix(1.87486 0 0 1.875 .1 0)"/><use xlink:href="#v" transform="matrix(1.87486 0 0 1.875 .1 0)"/><use xlink:href="#w" transform="matrix(1.87486 0 0 1.875 .1 0)"/><g transform="matrix(1.87486 0 0 1.875 .1 0)"><use xlink:href="#x"/></g></svg>