<?xml version="1.0" encoding="utf-8"?>
<!-- Generator: Adobe Illustrator 21.0.0, SVG Export Plug-In . SVG Version: 6.00 Build 0)  -->
<svg version="1.1" id="Слой_1" xmlns="http://www.w3.org/2000/svg" xmlns:xlink="http://www.w3.org/1999/xlink" x="0px" y="0px"
	 viewBox="0 0 785.9 629.1" style="enable-background:new 0 0 785.9 629.1;" xml:space="preserve">
<style type="text/css">
	.st0{fill:#F1AF76;}
	.st1{fill:#57CBDC;}
	.st2{fill:#F0AF76;}
	.st3{fill:#4FB9C9;}
	.st4{fill:#BCE9F0;}
</style>
<path class="st0" d="M432.5,67.5c-0.5-11.4,10.2-21,20.9-20.9c11.6,0.1,21.2,9.9,21.1,21.2c-0.1,11.6-9.7,21.1-21.3,20.9
	C441.7,88.4,432,78.8,432.5,67.5z"/>
<path class="st1" d="M529.5,144.9c-11,0-19.9-9-19.9-20.1c0-11,9.1-20,20.1-20c10.9,0,20,9.2,20,20.1
	C549.6,136,540.5,145,529.5,144.9z"/>
<path class="st2" d="M12.8,589.5c5.7-0.6,12.8,4.8,12.8,12.6c0,8-7,12.9-13,12.8c-6-0.1-12.5-4.8-12.6-12.9
	C-0.1,594.7,6.4,589,12.8,589.5z"/>
<path class="st3" d="M458.8,620.1c0.6-3.8,2.9-5.5,7.1-5.9c3.1-0.3,6.2,2.1,7.4,5.4c0.2,0.6,0.3,1.1,0.6,1.7
	c-0.1,0.5-0.3,0.9-0.4,1.4c-1.1,4.7-3.7,6.7-8.4,6.4c-3.4-0.2-5.2-2.4-6.2-5.4C458.5,622.4,458.5,621.2,458.8,620.1z"/>
<path class="st4" d="M782.4,327.9c-3.9-12.3-9.5-23.7-16.5-34.6c-5.6-8.7-38.6-59.8-125.4-86.6c-39.9-12.3-64.2,24.5-79.9-16
	c-7.3-21.2-35.2-38.3-46.4-39.9c-13.7-2.5-31-1.2-44.9,0.3c-4,0.4-22.5,4.7-27.8,5.6c-4.8,0.8-22.4,2.6-26.5,2.9
	c-3.5,0.2-7.1-0.1-10.7-0.4c-5.9-0.5-11.6-1.8-17.1-3.8c-6.6-2.4-11.9-6.6-16-12.4c-2.8-4-4.7-8.4-6.2-12.9
	c-4.2-12.4-8.1-24.9-12.6-37.2c-3.1-8.5-13.5-36.2-27.3-51.5c-11.7-12.8-21-19.8-33.2-26.4c-10.5-5.7-21.7-10-33.4-12.3
	c-21.1-4-31.7-2.4-36-2.2C183,2.6,159.2,20.8,154.7,26c-14.1,16.2-13.4,48-13,55.8c0.5,9.6,1.2,19.3-0.6,28.8
	c-2.7,14.6-11.2,24-25.3,28.9c-5,1.8-28.3,7.7-35.4,11c-15.2,6.9-18.2,37.6-18,44.1c0.4,16.7-10.1,52.1,40.9,74.4
	c20,8.7-32.5,141.5,12,166.7c55.3,31.3,88.7-56,160-7.3c58.7,40.1,27.5,78.5,80.7,109.3c44,25.5,77.9-48.7,119.3-22.7
	c73.7,46.4,156.1,64.7,181.9,45.6c30-22.1,21.6-90.4,21.5-93.4c-0.6-14.1-2.4-46.1,19.4-57.8c2.3-1.5,40.1-11.3,49.1-13.9
	c10.2-2.9,18.7-6.7,26.1-14.6c6.8-7.2,11.5-15,12.3-24.6C786.7,346.9,785.3,337.4,782.4,327.9z"/>
</svg>
