<svg width="609" height="131" xmlns:xlink="http://www.w3.org/1999/xlink" xmlns="http://www.w3.org/2000/svg"><defs><clipPath id="e"><use xlink:href="#a"/></clipPath><clipPath id="f"><use xlink:href="#b"/></clipPath><clipPath id="g"><use xlink:href="#c"/></clipPath><clipPath id="h"><use xlink:href="#d"/></clipPath><path d="M0 0h116.965v115.89H0V0z" transform="translate(.687 .093)" id="a"/><path d="M0 0h73.15v84.753H0V0z" transform="translate(0 .064)" id="b"/><path d="M0 0h43.899v86.965H0V0z" transform="translate(.8 .035)" id="c"/><path d="M0 0h37.154v84.273H0V0z" transform="translate(.748 .832)" id="d"/></defs><path d="M5.187 5.593h116.965v115.89H5.187V5.593z" fill="none"/><g clip-path="url(#e)" transform="translate(4.5 5.5)"><path d="M117.652 58.038c0 32.002-26.182 57.945-58.482 57.945C26.87 115.983.687 90.04.687 58.038.687 26.036 26.871.093 59.17.093c32.3 0 58.482 25.943 58.482 57.945" fill="#ED842A"/></g><path d="M106.112 61.98c0 22.675-18.344 41.057-40.972 41.057S24.168 84.655 24.168 61.98 42.512 20.923 65.14 20.923s40.972 18.382 40.972 41.057" fill="#FFF"/><path d="M89.722 65.264c0 15.419-12.473 27.92-27.86 27.92C46.474 93.184 34 80.683 34 65.264c0-15.419 12.474-27.918 27.862-27.918 15.387 0 27.86 12.5 27.86 27.918" fill="#0D476A"/><path d="M81.53 60.338c0 11.79-9.54 21.35-21.307 21.35-11.766 0-21.305-9.56-21.305-21.35 0-11.79 9.54-21.35 21.305-21.35 11.767 0 21.306 9.56 21.306 21.35" fill="#368DC4"/><path d="M73.332 57.053c0 9.071-7.337 16.423-16.388 16.423-9.051 0-16.39-7.352-16.39-16.423 0-9.07 7.339-16.423 16.39-16.423 9.05 0 16.388 7.353 16.388 16.423" fill="#61B9E8"/><path d="M26.574 76.76s2.21 6.49 5.355 15.779c3.671 10.842-2.296 15.425-2.296 15.425l19.886-5.377s-5.785-2.284-10.647-11.648c-4.86-9.363-12.298-14.178-12.298-14.178" fill="#FFF"/><path d="M147.5 23.564h73.15v84.753H147.5V23.564z" fill="none"/><g clip-path="url(#f)" transform="translate(147.5 23.5)"><path d="M65.27 27.578l6.494-10.32s3.117-3.93 0-6.14C68.646 8.908 55.658.065 41.37.065 22.945.064-.062 13.329 0 40.352c.063 27.023 16.35 44.465 41.89 44.465 25.464 0 29.615-12.775 29.615-12.775s1.56-2.701-.78-5.649c-2.336-2.948-6.494-9.337-6.494-9.337s-.52-1.966-2.337-1.719c-1.82.246-3.118 1.966-3.118 1.966s-6.232 6.142-16.626 6.142c-15.762 0-19.225-13.57-19.225-20.998 0-9.004 5.758-20.03 20.004-20.03 10.663 0 16.626 6.388 16.626 6.388s.26.983 2.597.983c2.339 0 3.118-2.21 3.118-2.21" fill="#F28628"/></g><path d="M295.5 103.5V51.85l17.156-3.152s2.237-.969 1.988 1.455c-.249 2.424.02 5.82.02 5.82s8.183-7.658 21.61-7.466c13.425.19 14.171 8.192 14.171 8.192s5.47-8.39 18.647-8.196c13.177.195 16.408 9.895 16.408 9.895V103.5h-18.894l-.746-34.19s0-3.639-5.22-3.639c-5.223 0-8.703 2.424-8.952 6.305-.248 3.881-.994 31.524-.994 31.524h-19.889l.247-33.222s-.497-4.605-5.718-4.847c-5.22-.245-9.447.727-9.695 5.092-.249 4.364.248 32.977.248 32.977H295.5z" fill="#F28628"/><g><path d="M397.3 24.535h43.899V111.5H397.3V24.535z" fill="none"/><g clip-path="url(#g)" transform="translate(396.5 24.5)"><path d="M1.362 70.735l9.052 14.85s1.13 2.542 5.48.813c2.667-1.06 28.543-8.718 28.801-26.45.259-17.733-14.74-21.58-15.255-32.957-.518-11.376 10.557-8.963 12.626-8.963 2.067 0 2.114-.447 1.595-1.92-.33-.934-6.955-14.912-6.955-14.912S36.399-.366 34.15.133c-4.73 1.05-30.57 4.645-30.828 23.61-.259 18.965 18.36 20.687 16.29 32.511C17.543 68.076 2.125 68.479 2.125 68.479s-2.378-.375-.763 2.256" fill="#318FC9"/></g></g><path d="M519.5 103.5c.755-.005 0-52.14 0-52.14l17.367-2.86 1.134 6.498s11.2-5.094 18.499-5.337v21.825l-13.592-.242s-2.013-.485-2.013 3.153V103.5H519.5z" fill="#318FC9"/><g><path d="M561.248 24.332h37.154v84.273h-37.154V24.332z" fill="none"/><g clip-path="url(#h)" transform="translate(560.5 23.5)"><path d="M34.458.832H24.86C7.146.832 5.915 17.689 5.915 17.689V30.92H.748v18.976h5.167v35.21h20.669v-35.21h11.318V30.92H26.584v-9.984c0-2.496 3.198-3.496 3.198-3.496s4.43-.248 5.66-.248c1.23 0 2.46-2.498 2.46-2.498V10.7c0-8.24-3.444-9.868-3.444-9.868" fill="#318FC9"/></g></g><path d="M506.497 52.5v53.53s.259 1.47-4.142 1.47h-16.043s-1.812.018-1.812-1.47v-7.316" fill="#318FC9"/><path d="M485.263 99.57s-10.988 8.625-21.451 7.885c-10.464-.74-18.312-8.38-18.312-16.018 0-7.64 2.093-38.937 2.093-38.937h21.189v30.805s1.046 7.393 8.11 7.393c7.063 0 8.371-5.668 8.371-5.668V52.5H507.5" fill="#318FC9"/><path d="M267.89 54.229v-5.124l17.61 3.548v55.287h-19.557v-5.456s-2.062-1.431-3.208 0c-1.146 1.431-4.716 7.016-15.893 7.016-17.897 0-25.342-14.32-25.342-30.07s9.02-30.93 28.205-30.93c13.315 0 15.32 6.444 15.32 6.444s.574.859 1.576.859c1.001 0 1.288-1.574 1.288-1.574zm-29.495 25.6c0 6.66 5.398 12.058 12.056 12.058 6.657 0 12.056-5.399 12.056-12.057 0-6.66-5.399-12.057-12.056-12.057-6.658 0-12.056 5.397-12.056 12.057z" fill="#F28628" fill-rule="evenodd"/></svg>