<?xml version="1.0" encoding="utf-8"?>
<!-- Generator: Adobe Illustrator 21.0.0, SVG Export Plug-In . SVG Version: 6.00 Build 0)  -->
<svg version="1.1" id="Слой_1" xmlns="http://www.w3.org/2000/svg" xmlns:xlink="http://www.w3.org/1999/xlink" x="0px" y="0px"
	 viewBox="0 0 1963 435.5" style="enable-background:new 0 0 1963 435.5;" xml:space="preserve">
<style type="text/css">
	.st0{fill:#ED842A;}
</style>
<desc>Created with Lunacy</desc>
<g>
	<path class="st0" d="M1960.7,91.6c-145,0-353-91.6-617.6-91.6c-2.8,0-5.5,0-8.2,0c-2.7,0-5.4,0-8.2,0
		c-264.6,0-472.6,91.6-617.6,91.6c-98.8,0-172.6-28-255.4-43.7c-24.9-5.2-50.5-8.8-75.7-10c-8.5-0.4-16.9-0.5-25-0.5
		c-8.2,0-16.5,0.1-25,0.5c-25.3,1.2-50.8,4.8-75.7,10C170.2,63.4,97.1,90.9,0,91.6v343.9h28.3h649.2h370.8h573.2H1963V91.6
		C1962.2,91.6,1961.5,91.6,1960.7,91.6z"/>
</g>
</svg>
