<?xml version="1.0" encoding="utf-8"?>
<!-- Generator: Adobe Illustrator 21.0.0, SVG Export Plug-In . SVG Version: 6.00 Build 0)  -->
<svg version="1.1" id="Слой_1" xmlns="http://www.w3.org/2000/svg" xmlns:xlink="http://www.w3.org/1999/xlink" x="0px" y="0px"
	 viewBox="0 0 1821.7 435.5" style="enable-background:new 0 0 1821.7 435.5;" xml:space="preserve">
<style type="text/css">
	.st0{fill:#FFFFFF;}
</style>
<desc>Created with Lunacy</desc>
<path class="st0" d="M1821.7,65.8c-60.6,0-102.4-41.2-155.9-56c-18.5-6.3-37.5-10.7-52.5-9.6c-0.9,0.1-1.7,0.1-2.6,0.2
	c-0.9-0.1-1.7-0.1-2.6-0.2c-15-1.1-34,3.3-52.5,9.6c-53.5,14.8-74.7,39.8-135.3,39.8c-115.2,0-177.5-24.1-245.6-26.1
	c-147.5-4.4-111.6,40.7-365.1,37.4c-253.4-3.3-251.1-44.2-440-47.5C263,11.4,158.7,31.3,88.4,49c-39.5,9.9-61.9,13.8-76.1,15.8
	C5.8,65.6,0,65.8,0,65.8l0.2,369.7h1821.5C1821.7,435.5,1821.7,72.8,1821.7,65.8z"/>
</svg>
